C:\Users\ma86\Desktop\PsoasStudy\Results\MuscGeometrySampling_R.mot														
version=1														
nRows=76														
nColumns=15														
inDegrees=yes														
endheader														
time	pelvis_tilt	pelvis_list	pelvis_rotation	pelvis_tx	pelvis_ty	pelvis_tz	hip_flexion_r	hip_adduction_r	hip_rotation_r	knee_angle_r	knee_angle_r_beta	ankle_angle_r	subtalar_angle_r	mtp_angle_r
250	0	0	0	0	0	0	-7.15025688	-28.26983155	-28.70433866	6.62337889	0	-7.15042493	-16.21497372	0
251	0	0	0	0	0	0	56.20634225	6.35378303	-8.66467502	63.99152476	0	3.17919682	4.87513504	0
252	0	0	0	0	0	0	59.8697396	-27.52641987	5.9032228	65.81193375	0	-5.96618378	7.39955191	0
253	0	0	0	0	0	0	17.83773515	1.22907973	11.61124182	4.55483095	0	-30.31809	-14.03835917	0
254	0	0	0	0	0	0	28.92918428	-21.26324328	-1.68233487	60.53208488	0	10.17216211	11.54452721	0
255	0	0	0	0	0	0	3.30831245	4.77683231	-26.44945448	46.28303223	0	-0.14937421	-4.71596404	0
256	0	0	0	0	0	0	-16.37433126	-26.93508849	19.37049303	4.12136685	0	3.89857889	-2.11422949	0
257	0	0	0	0	0	0	4.10361193	9.4703323	-28.02440356	5.37952276	0	-1.82344344	-21.87128709	0
258	0	0	0	0	0	0	51.79240466	-19.26969638	-25.03195826	50.37025485	0	-23.19585052	7.23857664	0
259	0	0	0	0	0	0	-4.49564341	-28.10865071	-12.96161846	81.34649717	0	-26.95911055	9.62542252	0
260	0	0	0	0	0	0	-6.77894528	6.58259782	-2.39866894	59.31094241	0	23.64348745	-23.36750995	0
261	0	0	0	0	0	0	57.80995335	-9.50163743	15.12400649	89.49284775	0	4.72284549	-2.48822001	0
262	0	0	0	0	0	0	41.63742173	7.7082532	-16.088725	25.04563111	0	21.3333705	-23.64930381	0
263	0	0	0	0	0	0	45.66712223	-4.63884177	14.42462727	85.65474035	0	15.24965405	18.11601962	0
264	0	0	0	0	0	0	-17.69189945	-15.12233981	-28.66130346	80.21903729	0	11.90837376	7.19025684	0
265	0	0	0	0	0	0	0.24777502	-23.91889807	11.92685495	74.98793209	0	-11.68815057	9.52545558	0
266	0	0	0	0	0	0	30.94367829	-23.68740804	16.61162942	24.06487262	0	-6.66793816	-22.03210256	0
267	0	0	0	0	0	0	37.87227205	-5.85151666	-12.11604681	86.3795038	0	-23.27898735	-4.5021687	0
268	0	0	0	0	0	0	30.0341791	-27.16600991	-24.50397093	77.15244403	0	-14.14322406	-14.30925187	0
269	0	0	0	0	0	0	11.596429	-1.18060363	-29.3017084	19.40955552	0	-33.51104642	-1.01229588	0
270	0	0	0	0	0	0	21.11113265	-2.52034448	1.99617256	74.03279739	0	-18.06751305	-14.38899545	0
271	0	0	0	0	0	0	4.88786439	-18.42845546	-15.99981736	13.1015327	0	-3.48535139	2.62859823	0
272	0	0	0	0	0	0	-5.24721201	-16.20692966	-28.47142639	32.95439752	0	-17.7318844	-13.3574726	0
273	0	0	0	0	0	0	33.0799764	-24.04905481	-22.35791075	21.98238916	0	-30.98425883	-15.88687444	0
274	0	0	0	0	0	0	17.2716049	-26.54361813	14.56715333	89.95395203	0	-1.92293862	3.055043	0
275	0	0	0	0	0	0	11.92215769	6.51842536	6.10218279	45.45571516	0	-19.40430778	-3.22025131	0
276	0	0	0	0	0	0	55.08461543	-11.92578143	-25.30365953	38.22563666	0	-38.3226832	14.82094042	0
277	0	0	0	0	0	0	41.38737457	-29.22153925	-0.07743515	72.62393784	0	-34.95837184	-10.5858262	0
278	0	0	0	0	0	0	39.28281301	3.58027231	-17.90387697	68.95875532	0	-32.04985275	12.41437485	0
279	0	0	0	0	0	0	54.15669285	10.87765505	-19.93582363	9.69449383	0	16.78432993	-11.27041694	0
280	0	0	0	0	0	0	7.75758923	-2.89238438	19.85853187	20.12987079	0	4.40267058	-21.47238353	0
281	0	0	0	0	0	0	13.54831784	-8.72163257	9.86022571	44.42989653	0	20.19000878	-4.9636809	0
282	0	0	0	0	0	0	37.47479397	-18.88165626	-17.66828403	76.34582651	0	1.20423575	-19.07016016	0
283	0	0	0	0	0	0	9.74573264	-9.47810903	-17.5011811	4.29676294	0	12.15038123	18.18755636	0
284	0	0	0	0	0	0	45.87434936	-22.35225551	-21.4082242	54.25454794	0	-3.24059418	-20.75317692	0
285	0	0	0	0	0	0	18.8680736	-14.46150351	8.65051375	1.69914968	0	28.61498025	-6.56843344	0
286	0	0	0	0	0	0	47.90466095	-29.86592801	-24.8553441	41.03650123	0	-23.63806118	-13.44557444	0
287	0	0	0	0	0	0	43.93674522	-8.31572021	2.51196391	62.39048767	0	21.66313163	-18.18330922	0
288	0	0	0	0	0	0	53.02138068	-23.56847392	9.43590088	13.28879374	0	-17.51279325	1.0970666	0
289	0	0	0	0	0	0	6.55127886	-28.13789713	14.62646736	88.0448961	0	-32.0095042	4.96836026	0
290	0	0	0	0	0	0	-12.37978545	9.40004495	11.52156972	85.22720231	0	29.706331	-3.71153391	0
291	0	0	0	0	0	0	51.04036944	-28.21167709	-4.19183616	3.85260568	0	0.14551277	11.96820132	0
292	0	0	0	0	0	0	34.93380347	13.20846276	-21.30209734	69.36554756	0	-14.24894858	-5.97931546	0
293	0	0	0	0	0	0	44.30591119	11.39344296	13.83173878	6.98253586	0	-36.56736222	-6.24165633	0
294	0	0	0	0	0	0	42.8493713	-27.67290574	-9.40976098	36.24148542	0	-37.85366643	-15.41264544	0
295	0	0	0	0	0	0	56.57891813	-18.89099046	18.09692811	15.13234991	0	-32.38576472	-8.46534444	0
296	0	0	0	0	0	0	44.79345079	7.03054324	14.69014893	81.8927025	0	-39.51237895	-7.36111635	0
297	0	0	0	0	0	0	28.86242612	-3.4522681	13.65686381	31.78417542	0	27.82191913	-1.26934841	0
298	0	0	0	0	0	0	38.8484929	1.84292263	-0.29724226	31.69431007	0	18.71824957	-4.4638357	0
299	0	0	0	0	0	0	-8.08975085	-13.15789909	5.38470279	49.21194308	0	-34.21056365	-14.51918359	0
300	0	0	0	0	0	0	1.84755474	-20.52791757	-29.25924982	87.16384575	0	-22.36697191	12.38525145	0
301	0	0	0	0	0	0	53.06286467	-21.06462461	-10.75264817	46.13216948	0	-15.14869886	-1.58532755	0
302	0	0	0	0	0	0	22.57522377	-4.42718112	5.56602308	58.43248283	0	2.15615096	-15.48804644	0
303	0	0	0	0	0	0	26.58494012	-5.68215164	6.16744179	88.34898471	0	-29.50042139	17.00304935	0
304	0	0	0	0	0	0	3.08118039	-21.89718666	-7.47802023	27.84724459	0	-6.69088063	-0.36721774	0
305	0	0	0	0	0	0	23.03383555	2.86929923	-2.24897413	22.09890898	0	-18.09165087	-24.42597586	0
306	0	0	0	0	0	0	-4.70590244	-23.54160077	-26.54327828	9.54542374	0	-16.10720302	-4.26898784	0
307	0	0	0	0	0	0	35.12656554	5.7145766	10.63470152	3.6777874	0	11.31971524	-20.01393953	0
308	0	0	0	0	0	0	56.01329339	-6.69520918	-21.61865776	28.30110683	0	26.08544339	9.5781711	0
309	0	0	0	0	0	0	-15.15051508	4.06873666	-6.59424784	30.623073	0	1.82836831	-13.12377931	0
310	0	0	0	0	0	0	53.470235	5.79502662	-1.42309768	66.41985939	0	-22.18303301	-4.1496941	0
311	0	0	0	0	0	0	-4.33485582	-27.96750014	16.25499188	36.59404962	0	-9.94659727	11.69114516	0
312	0	0	0	0	0	0	8.62196626	12.16423148	13.4455685	11.42479067	0	-8.69993109	-24.81168349	0
313	0	0	0	0	0	0	45.04003751	-17.27234511	-8.8988897	65.09839899	0	9.57941171	16.7879494	0
314	0	0	0	0	0	0	-18.21927683	-19.89068226	-13.76628114	70.47051481	0	-26.45891097	-0.43275109	0
315	0	0	0	0	0	0	-17.96032973	-1.74509794	-4.30850565	66.47271669	0	-24.22408882	-10.44192044	0
316	0	0	0	0	0	0	59.15898758	-10.61005541	-8.52377817	72.49708577	0	-22.32704103	-0.77863332	0
317	0	0	0	0	0	0	0.89288416	7.89955332	-3.05529733	30.69342849	0	-37.21517908	19.76634941	0
318	0	0	0	0	0	0	57.63600281	8.43838046	-13.0941055	21.28073068	0	-5.76819873	11.7501053	0
319	0	0	0	0	0	0	55.47061297	-26.77670213	-12.61625007	18.9459667	0	-18.90216798	-11.38184283	0
320	0	0	0	0	0	0	25.4403259	4.65549066	0.96653994	40.78851745	0	-29.06907358	-23.43791773	0
321	0	0	0	0	0	0	21.76774345	-11.25078076	-26.00882606	42.55726767	0	22.04509572	9.05204554	0
322	0	0	0	0	0	0	-5.10039364	-9.20926359	13.48748765	52.08248831	0	25.42206541	8.43349906	0
323	0	0	0	0	0	0	41.70602232	-27.26185855	11.47010136	38.25273896	0	-21.67159229	4.58546884	0
324	0	0	0	0	0	0	17.88616837	9.8822259	13.7433603	46.71358373	0	-11.91926081	-2.96095759	0
325	0	0	0	0	0	0	0.9629198	-16.062171	-4.92871697	39.91976069	0	-31.51797132	16.94399571	0
